# xmcd
#
# Track frame offsets:
#	150
#	7080
#	26639
#	43016
#	60351
#	73182
#	96170
#	108200
#	126554
#	147334
#	176015
#	193427
#	211673
#	226428
#	251833
#	266510
#
# Disc length: 3757 seconds
#
# Revision: 1
# Processed by: cddbd v1.5.2PL0 Copyright (c) Steve Scherf et al.
# Submitted via: audiograbber 1.83.01
#
DISCID=f10eab10
DTITLE=Vince Gill - 1st Annual Delfest, Cumberland, MD 24 May 08)
DYEAR=2008
DGENRE=Bluegrass
TTITLE0=Intro
TTITLE1=Lonesome Wind Blues
TTITLE2=Little Girl In Tennessee
TTITLE3=Catfish John
TTITLE4=Dear Old Dixie
TTITLE5=The Cold Grey Light Of Gone
TTITLE6=I'll Love Nobody But You
TTITLE7=Dark As The Night
TTITLE8=The Gold Rush
TTITLE9=This Old Guitar And Me
TTITLE10=Give Me The Highway
TTITLE11=Blue Trail Of Sorrow
TTITLE12=All Prayed Up
TTITLE13=Go Rest High On That Mountain
TTITLE14=My Gal
TTITLE15=Cryin' Holy Unto The Lord
EXTD=
EXTT0=
EXTT1=
EXTT2=
EXTT3=
EXTT4=
EXTT5=
EXTT6=
EXTT7=
EXTT8=
EXTT9=
EXTT10=
EXTT11=
EXTT12=
EXTT13=
EXTT14=
EXTT15=
PLAYORDER=
